<svg width="24" height="24" viewBox="0 0 24 24" fill="none" xmlns="http://www.w3.org/2000/svg">
<path fill-rule="evenodd" clip-rule="evenodd" d="M18.4795 11.7503C19.8388 11.7503 20.5948 12.7213 20.8594 13.4104C20.9869 13.7429 20.9922 14.0746 20.9922 14.2845V15.2718C22.0109 15.6069 22.7469 16.5646 22.7471 17.6956V19.6976C22.7471 21.1081 21.6023 22.2503 20.1924 22.2503H16.8066C15.3969 22.2501 14.252 21.1079 14.252 19.6976V17.6956C14.2521 16.572 14.9789 15.6186 15.9873 15.2776V14.2845C15.9873 14.0746 15.9916 13.7429 16.1191 13.4104C16.3791 12.733 17.1105 11.7503 18.4795 11.7503ZM7.08398 1.75029C8.11369 1.74983 8.82588 1.74903 9.46484 1.98857C10.8606 2.51183 11.4732 3.75115 11.9453 4.70634C11.9775 4.77153 12.0089 4.83552 12.04 4.89775L12.4668 5.75029H16.7949C17.8142 5.75027 18.6365 5.74963 19.2959 5.81669C19.9765 5.88593 20.5668 6.03336 21.0889 6.38212C21.4984 6.6557 21.8504 7.00689 22.124 7.4163C22.6577 8.21483 22.7311 9.2055 22.75 10.4886C22.7561 10.9026 22.4257 11.244 22.0117 11.2503C21.5976 11.2564 21.2561 10.9252 21.25 10.511C21.2304 9.17967 21.131 8.6307 20.877 8.25029C20.7128 8.00468 20.5016 7.79333 20.2559 7.62919C20.0212 7.47242 19.7057 7.36703 19.1436 7.30986C18.5689 7.25143 17.8231 7.25029 16.7539 7.25029H7.00195C6.58783 7.25029 6.25209 6.91438 6.25195 6.50029C6.25195 6.08607 6.58774 5.75029 7.00195 5.75029H10.7891L10.6826 5.5374C10.1288 4.42999 9.76617 3.70318 8.93848 3.39286C8.58671 3.26099 8.1691 3.25029 6.94629 3.25029C6.02463 3.25029 5.38165 3.2503 4.88281 3.29423C4.39378 3.33733 4.11461 3.41811 3.9043 3.53544C3.53981 3.73879 3.23854 4.03927 3.03516 4.40361C2.9179 4.61373 2.83802 4.8926 2.79492 5.38115C2.75095 5.87987 2.75 6.52298 2.75 7.44462V10.5003C2.75 12.8781 2.75199 14.5862 2.92676 15.886C3.09866 17.1643 3.42539 17.9356 3.99512 18.5052C4.56496 19.0749 5.33643 19.4016 6.61523 19.5735C7.91556 19.7483 9.6242 19.7503 12.0029 19.7503C12.4171 19.7503 12.7529 20.0861 12.7529 20.5003C12.7528 20.9144 12.4171 21.2503 12.0029 21.2503H11.9453C9.63645 21.2503 7.82681 21.2496 6.41504 21.0599C4.97011 20.8656 3.82952 20.4604 2.93457 19.5657C2.03972 18.671 1.63471 17.5308 1.44043 16.0862C1.25063 14.6748 1.24999 12.866 1.25 10.5579V7.40947C1.24999 6.53076 1.25032 5.82166 1.30078 5.24931C1.3528 4.65972 1.46255 4.14338 1.72559 3.67216C2.06456 3.06499 2.56651 2.56469 3.17383 2.22587C3.64518 1.96293 4.16116 1.85207 4.75098 1.80009C5.32342 1.74966 6.03227 1.75028 6.91113 1.75029H7.08398ZM16.8066 16.6438C16.2234 16.644 15.7522 17.1159 15.752 17.6956V19.6976C15.752 20.2774 16.2232 20.7501 16.8066 20.7503H20.1924C20.776 20.7503 21.2471 20.2775 21.2471 19.6976V17.6956C21.2469 17.1158 20.7758 16.6438 20.1924 16.6438H16.8066ZM18.4795 13.2503C17.9589 13.2503 17.6514 13.6048 17.5195 13.9485C17.5001 13.9996 17.4873 14.0843 17.4873 14.2845V15.1438H19.4922V14.2845C19.4922 14.0839 19.4785 13.9996 19.459 13.9485C19.3316 13.6165 19.0095 13.2503 18.4795 13.2503Z" fill="#80519F"/>
</svg>
