<svg width="24" height="24" viewBox="0 0 24 24" fill="none" xmlns="http://www.w3.org/2000/svg">
<path fill-rule="evenodd" clip-rule="evenodd" d="M3.6961 1.72831C4.16911 1.34283 4.74464 1.16856 5.31719 1.2869C5.8838 1.40407 6.33468 1.7849 6.61505 2.28788L7.5086 3.88944C7.83761 4.47965 8.11489 4.9772 8.29571 5.40897C8.48735 5.86671 8.6006 6.31813 8.54864 6.81718C8.49656 7.31654 8.29273 7.73574 8.01055 8.14432C7.74454 8.5295 7.37027 8.95795 6.92657 9.46757L4.69903 12.0271C6.46582 14.9229 9.07469 17.533 11.9734 19.3015L14.533 17.074C15.0426 16.6303 15.4711 16.256 15.8563 15.99C16.2648 15.7079 16.684 15.504 17.1834 15.4519C17.6824 15.4 18.1339 15.5132 18.5916 15.7049C19.0234 15.8857 19.5209 16.163 20.1111 16.492L21.7127 17.3855C22.2157 17.6659 22.5965 18.1168 22.7137 18.6834C22.832 19.2559 22.6577 19.8315 22.2723 20.3045C20.8734 22.0208 18.6322 23.1136 16.2811 22.6394C14.8359 22.3479 13.41 21.8619 11.6854 20.8728C8.22001 18.8855 5.11281 15.7766 3.12774 12.3152C2.1387 10.5906 1.65267 9.16473 1.36114 7.71952C0.886932 5.36836 1.97978 3.12718 3.6961 1.72831ZM17.3387 16.9432C17.1798 16.9597 17.0008 17.0227 16.7088 17.2244C16.4011 17.4369 16.036 17.7544 15.4871 18.2322L13.3709 20.074C14.5373 20.6487 15.5524 20.9619 16.5779 21.1687C18.2737 21.5107 19.9855 20.7357 21.1092 19.3572C21.2567 19.1762 21.2578 19.0496 21.2449 18.9871C21.2308 18.9187 21.1739 18.8014 20.9832 18.6951L19.4158 17.8221C18.7804 17.4679 18.3573 17.2331 18.0125 17.0887C17.6853 16.9517 17.4975 16.9266 17.3387 16.9432ZM19.8309 4.23417C20.2321 4.1323 20.6399 4.3749 20.742 4.77616C20.8441 5.17758 20.6014 5.58613 20.2 5.68827C19.8125 5.78696 19.3361 6.04816 18.7957 6.46854C18.2638 6.88236 17.7138 7.41571 17.1815 8.00077C16.1164 9.17141 15.1673 10.4974 14.6248 11.3543C14.4682 11.6016 14.1825 11.7357 13.8924 11.6971C13.6022 11.6582 13.3603 11.4535 13.2742 11.1736C13.1523 10.7777 12.8905 10.4446 12.5779 10.1814C12.2627 9.91598 11.9365 9.75579 11.7645 9.69608C11.3731 9.56038 11.1659 9.13334 11.3016 8.74198C11.4373 8.35063 11.8643 8.14339 12.2557 8.27909C12.5975 8.39763 13.086 8.64764 13.5447 9.03397C13.7139 9.17647 13.8842 9.3425 14.0438 9.53202C14.5994 8.74657 15.305 7.83407 16.0721 6.991C16.6397 6.36713 17.2532 5.76854 17.8748 5.28495C18.4877 4.80816 19.1553 4.40606 19.8309 4.23417ZM5.01348 2.75565C4.95098 2.74273 4.8244 2.74385 4.64337 2.89139C3.26487 4.01508 2.48992 5.72684 2.83184 7.42264C3.03873 8.44823 3.35185 9.4633 3.92657 10.6297L5.76837 8.51346C6.24619 7.96461 6.56371 7.59944 6.77618 7.29178C6.97785 6.99976 7.04087 6.82074 7.05743 6.6619C7.07396 6.50312 7.04892 6.31525 6.91192 5.98807C6.76753 5.64327 6.53271 5.22017 6.17852 4.58475L5.30548 3.01737C5.19914 2.82671 5.08188 2.7698 5.01348 2.75565Z" fill="#25935F"/>
</svg>
