<svg width="21" height="21" viewBox="0 0 21 21" fill="none" xmlns="http://www.w3.org/2000/svg">
<path d="M4.23633 2.99998C4.77498 2.99958 5.19867 2.99916 5.5957 3.12107C5.85898 3.20196 6.10928 3.32148 6.33691 3.47654C6.68025 3.71042 6.94333 4.03983 7.27734 4.45799C7.29648 4.48194 7.31534 4.5067 7.33496 4.53123C7.75529 5.05664 7.87357 5.19238 8.00684 5.28318C8.11026 5.35363 8.22413 5.40755 8.34375 5.44431C8.49793 5.49168 8.67757 5.49998 9.35059 5.49998H13.2881C13.9576 5.49996 14.5164 5.49986 14.9688 5.54588C15.4421 5.59404 15.8814 5.69842 16.2773 5.96287C16.5775 6.16345 16.8355 6.42148 17.0361 6.72166C17.3007 7.11765 17.4059 7.55775 17.4541 8.03123C17.4855 8.34042 17.493 8.69935 17.4961 9.10935C17.5287 9.11378 17.561 9.11726 17.5928 9.12205C18.4355 9.2491 19.1878 9.53409 19.6504 10.2617C20.1103 10.9853 20.0573 11.7909 19.8271 12.6181C19.6038 13.4209 19.163 14.4153 18.6221 15.6377L17.6973 17.7295C17.4572 18.2722 17.2533 18.732 17.0459 19.0928C16.8255 19.4762 16.5685 19.8076 16.1914 20.0556C15.8134 20.3042 15.4084 20.4076 14.9707 20.4551C14.5605 20.4995 14.0628 20.5 13.4785 20.5H5.47168C4.20967 20.5 3.17653 20.5 2.38965 20.3818C1.57207 20.259 0.842328 19.9837 0.37793 19.2861C0.220426 19.0495 0.119201 18.8027 0.0615239 18.5478C0.0219113 18.4565 3.28741e-05 18.3559 4.17233e-07 18.25V7.09177C-1.35899e-05 6.47788 0.000110269 5.96521 0.0390629 5.54881C0.0797797 5.11373 0.167255 4.70763 0.391602 4.33396C0.623605 3.94756 0.947614 3.6246 1.33398 3.39256C1.70827 3.16783 2.11602 3.07966 2.55273 3.03904C2.97136 3.00014 3.48758 2.99996 4.10645 2.99998H4.23633ZM6.32129 10.5C5.65988 10.5 5.2252 10.5008 4.8916 10.5381C4.57753 10.5731 4.42528 10.6341 4.31348 10.7109C4.20072 10.7886 4.08612 10.9121 3.93555 11.1992C3.77665 11.5023 3.61363 11.9149 3.36816 12.539L2.58106 14.539C2.08357 15.8039 1.74276 16.6755 1.58691 17.3408C1.43445 17.9918 1.5031 18.2703 1.62598 18.4551C1.74655 18.6362 1.96764 18.8016 2.61231 18.8984C3.27451 18.9979 4.1942 19 5.53516 19H13.4395C14.0728 19 14.4887 18.9985 14.8086 18.9638C15.11 18.9312 15.2579 18.8746 15.3672 18.8027C15.4773 18.7303 15.5905 18.6146 15.7451 18.3457C15.9084 18.0616 16.0811 17.6748 16.3408 17.0879L17.2256 15.0879C17.7979 13.7943 18.1915 12.9002 18.3818 12.2158C18.5687 11.544 18.5056 11.2567 18.3848 11.0664C18.2662 10.8799 18.0422 10.7069 17.3691 10.6054C16.6805 10.5017 15.7207 10.5 14.3252 10.5H6.32129ZM4.1416 4.49998C3.47895 4.49998 3.03334 4.50055 2.69238 4.5322C2.36203 4.5629 2.20726 4.61726 2.10645 4.67771C1.93076 4.78319 1.78322 4.93074 1.67773 5.10642C1.61688 5.20787 1.56283 5.36149 1.53223 5.68845C1.50059 6.0267 1.5 6.46891 1.5 7.12693V13.1894L1.97168 11.9892C1.97645 11.9771 1.98159 11.9652 1.98633 11.9531C2.21346 11.3755 2.4053 10.8866 2.60645 10.5029C2.82012 10.0954 3.07539 9.74176 3.46191 9.47556C3.84937 9.20877 4.26959 9.0977 4.72461 9.04685C5.15128 8.9992 5.67068 8.99996 6.28125 8.99998H14.3887C14.9722 8.99996 15.5083 9.00101 15.9951 9.0117C15.9914 8.67416 15.9838 8.40701 15.9609 8.18259C15.9249 7.82804 15.8614 7.66409 15.7891 7.55564C15.6979 7.41915 15.5808 7.30114 15.4443 7.20994C15.3359 7.1375 15.1712 7.07415 14.8164 7.03806C14.4491 7.00074 13.9674 6.99998 13.25 6.99998H9.25684C8.7218 7.00037 8.30035 7.00084 7.90332 6.87888C7.64011 6.79802 7.39067 6.67744 7.16309 6.52244C6.81973 6.28856 6.55668 5.95915 6.22266 5.54099C6.20356 5.51708 6.18366 5.49322 6.16406 5.46873C5.74373 4.94331 5.62545 4.80758 5.49219 4.71677C5.38872 4.64629 5.27495 4.59143 5.15527 4.55467C5.00129 4.50742 4.81954 4.49998 4.1416 4.49998ZM13.7402 0.00193065C14.4654 -0.0193919 15.1749 0.136974 15.8184 0.417946C16.8454 0.866474 17.6473 1.42614 18.2656 2.26463L19.1064 0.864235C19.3196 0.50905 19.7806 0.393312 20.1357 0.606423C20.4909 0.81955 20.6057 1.28055 20.3926 1.63572L18.8926 4.13572C18.7479 4.37666 18.4807 4.51656 18.2002 4.49802C17.9198 4.47947 17.6732 4.30569 17.5615 4.04783C17.068 2.90744 16.3815 2.30016 15.2178 1.79197C14.7553 1.59002 14.265 1.4868 13.7842 1.50095C12.1669 1.54856 11.1296 2.16571 10.3516 3.21189C10.1044 3.54422 9.63411 3.61336 9.30176 3.36619C8.96955 3.11898 8.90036 2.64869 9.14746 2.31638C10.1996 0.901633 11.6649 0.0630064 13.7402 0.00193065Z" fill="#F5BD02"/>
</svg>
