<svg width="24" height="24" viewBox="0 0 24 24" fill="none" xmlns="http://www.w3.org/2000/svg">
<path fill-rule="evenodd" clip-rule="evenodd" d="M16.3245 9.75031C17.5623 9.75028 18.5763 9.74989 19.3509 9.86457C20.1557 9.98377 20.8745 10.2496 21.344 10.9241C21.8127 11.5974 21.8149 12.365 21.6517 13.1644C21.4943 13.935 21.1482 14.8926 20.7249 16.0638L19.6058 19.1605C19.3876 19.7641 19.2039 20.275 19.0061 20.6761C18.7959 21.1025 18.5393 21.4719 18.1429 21.7513C17.7462 22.0307 17.3125 22.1473 16.8411 22.2005C16.3983 22.2505 15.8579 22.2503 15.22 22.2503H8.78056C8.14244 22.2503 7.60146 22.2505 7.15849 22.2005C6.68712 22.1473 6.25339 22.0308 5.85673 21.7513C5.46045 21.472 5.20461 21.1024 4.99443 20.6761C4.79665 20.2749 4.61201 19.7642 4.39384 19.1605L3.2747 16.0638C2.85143 14.8927 2.50532 13.935 2.34794 13.1644C2.18475 12.3651 2.18705 11.5974 2.65556 10.9241C3.12506 10.2497 3.84403 9.9838 4.64873 9.86457C5.42328 9.74985 6.43723 9.75028 7.67509 9.75031H16.3245ZM7.73759 11.2503C6.42224 11.2503 5.52009 11.2524 4.86845 11.3489C4.23448 11.4429 4.01092 11.6036 3.88701 11.7816C3.76237 11.9608 3.68837 12.23 3.81767 12.8636C3.95044 13.5139 4.25707 14.3685 4.70634 15.6116L5.7913 18.6116C6.02704 19.2639 6.18373 19.6958 6.34013 20.013C6.48807 20.313 6.60408 20.4423 6.72099 20.5247C6.83767 20.607 6.99757 20.6721 7.32744 20.7093C7.67637 20.7487 8.13166 20.7503 8.82158 20.7503H15.179C15.8689 20.7503 16.3242 20.7487 16.6731 20.7093C17.0029 20.6721 17.1629 20.607 17.2796 20.5247C17.3964 20.4423 17.5126 20.3129 17.6604 20.013C17.8168 19.6958 17.9735 19.2639 18.2093 18.6116L19.2933 15.6116C19.7426 14.3684 20.0492 13.5139 20.1819 12.8636C20.3112 12.2301 20.2382 11.9609 20.1136 11.7816C19.9896 11.6035 19.7655 11.4429 19.1311 11.3489C18.4795 11.2525 17.5781 11.2503 16.263 11.2503H7.73759ZM17.5218 5.75031C17.736 5.7503 17.9336 5.74977 18.0989 5.76105C18.2765 5.77319 18.4719 5.80096 18.6702 5.88312C19.0989 6.06076 19.4399 6.40164 19.6175 6.83039C19.6996 7.02877 19.7264 7.22414 19.7386 7.40168C19.7498 7.56691 19.7503 7.76372 19.7503 7.97785V8.00031C19.7501 8.41438 19.4144 8.75031 19.0003 8.75031C18.5862 8.7503 18.2505 8.41437 18.2503 8.00031C18.2503 7.75732 18.2498 7.61219 18.2425 7.50422C18.238 7.43828 18.2317 7.40949 18.2298 7.40168C18.2045 7.34285 18.1578 7.29512 18.0989 7.26984C18.0913 7.26793 18.0627 7.26265 17.9964 7.25812C17.8884 7.25076 17.7435 7.25031 17.5003 7.25031H6.50029C6.25706 7.25031 6.1122 7.25076 6.00419 7.25812C5.93782 7.26265 5.90923 7.26793 5.90165 7.26984C5.84282 7.29512 5.79607 7.34285 5.7708 7.40168C5.76884 7.4095 5.7626 7.4383 5.7581 7.50422C5.75075 7.61219 5.75029 7.75733 5.75029 8.00031C5.75011 8.41438 5.41439 8.75031 5.00029 8.75031C4.58619 8.7503 4.25046 8.41437 4.25029 8.00031C4.25029 7.99304 4.25029 7.98508 4.25029 7.97785C4.25027 7.76372 4.25073 7.56691 4.26201 7.40168C4.27413 7.22414 4.30097 7.02877 4.3831 6.83039C4.56069 6.40165 4.90165 6.06076 5.33037 5.88312C5.52871 5.80097 5.72412 5.77319 5.90165 5.76105C6.06698 5.74977 6.26453 5.7503 6.4788 5.75031H17.5218ZM15.0218 1.75031C15.236 1.7503 15.4336 1.74977 15.5989 1.76105C15.7765 1.77319 15.9719 1.80096 16.1702 1.88312C16.5989 2.06076 16.9399 2.40164 17.1175 2.83039C17.1996 3.02877 17.2264 3.22414 17.2386 3.40168C17.2498 3.56691 17.2503 3.76372 17.2503 3.97785V4.00031C17.2501 4.41438 16.9144 4.75031 16.5003 4.75031C16.0862 4.7503 15.7505 4.41437 15.7503 4.00031C15.7503 3.75732 15.7498 3.61219 15.7425 3.50422C15.738 3.43828 15.7317 3.40949 15.7298 3.40168C15.7045 3.34285 15.6578 3.29512 15.5989 3.26984C15.5913 3.26793 15.5627 3.26265 15.4964 3.25812C15.3884 3.25076 15.2435 3.25031 15.0003 3.25031H9.00029C8.75706 3.25031 8.6122 3.25076 8.50419 3.25812C8.43782 3.26265 8.40924 3.26793 8.40165 3.26984C8.34282 3.29512 8.29607 3.34285 8.2708 3.40168C8.26884 3.4095 8.2626 3.4383 8.2581 3.50422C8.25075 3.61219 8.25029 3.75733 8.25029 4.00031C8.25011 4.41438 7.91439 4.75031 7.50029 4.75031C7.08619 4.7503 6.75046 4.41437 6.75029 4.00031C6.75029 3.99304 6.75029 3.98508 6.75029 3.97785C6.75027 3.76372 6.75073 3.56691 6.76201 3.40168C6.77413 3.22414 6.80097 3.02877 6.8831 2.83039C7.06069 2.40165 7.40165 2.06076 7.83037 1.88312C8.02871 1.80097 8.22412 1.77319 8.40165 1.76105C8.56698 1.74977 8.76453 1.7503 8.9788 1.75031H15.0218Z" fill="#175CD3"/>
</svg>
